<svg width="375" height="236" viewBox="0 0 375 236" fill="none" xmlns="http://www.w3.org/2000/svg">
  <g clip-path="url(#clip0)">
    <rect width="375" height="236" fill="white"/>
    <mask id="mask0" mask-type="alpha" maskUnits="userSpaceOnUse" x="0" y="-4" width="375" height="240">
      <rect y="-4" width="375" height="240" fill="#E1FFFB"/>
    </mask>
    <g mask="url(#mask0)">
      <path d="M305.587 121.372C305.979 121.644 306.175 121.908 306.175 122.164C306.175 122.316 306.083 122.528 305.899 122.8L303.307 126.676V128.968C303.307 129.152 303.299 129.292 303.283 129.388C303.275 129.476 303.239 129.58 303.175 129.7C303.111 129.82 303.003 129.904 302.851 129.952C302.699 130 302.495 130.024 302.239 130.024C301.983 130.024 301.779 130 301.627 129.952C301.475 129.904 301.367 129.82 301.303 129.7C301.239 129.572 301.199 129.464 301.183 129.376C301.175 129.28 301.171 129.136 301.171 128.944V126.676L298.579 122.8C298.395 122.528 298.303 122.316 298.303 122.164C298.303 121.908 298.479 121.664 298.831 121.432C299.183 121.192 299.435 121.072 299.587 121.072C299.739 121.072 299.859 121.104 299.947 121.168C300.083 121.256 300.227 121.42 300.379 121.66L302.239 124.636L304.099 121.66C304.251 121.42 304.383 121.264 304.495 121.192C304.607 121.112 304.735 121.072 304.879 121.072C305.031 121.072 305.267 121.172 305.587 121.372ZM316.178 121.54C316.242 121.66 316.278 121.768 316.286 121.864C316.302 121.96 316.31 122.1 316.31 122.284V128.944C316.31 129.496 316.158 129.82 315.854 129.916C315.702 129.964 315.51 129.988 315.278 129.988C315.046 129.988 314.862 129.968 314.726 129.928C314.59 129.888 314.486 129.84 314.414 129.784C314.342 129.728 314.286 129.648 314.246 129.544C314.206 129.408 314.186 129.2 314.186 128.92V124.9C313.986 125.148 313.694 125.544 313.31 126.088C312.926 126.624 312.682 126.96 312.578 127.096C312.474 127.232 312.402 127.328 312.362 127.384C312.322 127.432 312.222 127.504 312.062 127.6C311.91 127.688 311.742 127.732 311.558 127.732C311.382 127.732 311.218 127.692 311.066 127.612C310.922 127.524 310.818 127.44 310.754 127.36L310.658 127.228C310.498 127.028 310.182 126.604 309.71 125.956C309.238 125.3 308.982 124.948 308.942 124.9V128.944C308.942 129.128 308.934 129.268 308.918 129.364C308.91 129.452 308.874 129.552 308.81 129.664C308.69 129.88 308.378 129.988 307.874 129.988C307.386 129.988 307.082 129.88 306.962 129.664C306.898 129.552 306.858 129.448 306.842 129.352C306.834 129.256 306.83 129.112 306.83 128.92V122.26C306.83 122.076 306.834 121.94 306.842 121.852C306.858 121.756 306.898 121.648 306.962 121.528C307.082 121.32 307.394 121.216 307.898 121.216C308.114 121.216 308.298 121.244 308.45 121.3C308.61 121.348 308.714 121.4 308.762 121.456L308.834 121.528L311.558 125.104C312.918 123.304 313.826 122.116 314.282 121.54C314.418 121.324 314.738 121.216 315.242 121.216C315.754 121.216 316.066 121.324 316.178 121.54ZM322.767 127.696L322.983 127.54C323.255 127.38 323.447 127.3 323.559 127.3C323.807 127.3 324.075 127.524 324.363 127.972C324.539 128.252 324.627 128.476 324.627 128.644C324.627 128.812 324.571 128.952 324.459 129.064C324.355 129.176 324.231 129.276 324.087 129.364C323.943 129.452 323.803 129.536 323.667 129.616C323.539 129.696 323.271 129.8 322.863 129.928C322.455 130.056 322.059 130.12 321.675 130.12C321.299 130.12 320.915 130.072 320.523 129.976C320.139 129.872 319.739 129.704 319.323 129.472C318.915 129.232 318.547 128.944 318.219 128.608C317.891 128.264 317.619 127.828 317.403 127.3C317.195 126.764 317.091 126.184 317.091 125.56C317.091 124.936 317.195 124.372 317.403 123.868C317.611 123.356 317.875 122.936 318.195 122.608C318.523 122.272 318.895 121.992 319.311 121.768C320.095 121.336 320.883 121.12 321.675 121.12C322.051 121.12 322.431 121.18 322.815 121.3C323.207 121.412 323.503 121.528 323.703 121.648L323.991 121.816C324.135 121.904 324.247 121.976 324.327 122.032C324.535 122.2 324.639 122.392 324.639 122.608C324.639 122.816 324.555 123.036 324.387 123.268C324.075 123.7 323.795 123.916 323.547 123.916C323.403 123.916 323.199 123.828 322.935 123.652C322.599 123.38 322.151 123.244 321.591 123.244C321.071 123.244 320.559 123.424 320.055 123.784C319.815 123.96 319.615 124.208 319.455 124.528C319.295 124.848 319.215 125.212 319.215 125.62C319.215 126.02 319.295 126.38 319.455 126.7C319.615 127.02 319.819 127.272 320.067 127.456C320.555 127.808 321.063 127.984 321.591 127.984C321.839 127.984 322.071 127.952 322.287 127.888C322.511 127.824 322.671 127.76 322.767 127.696ZM330.257 121.828L333.497 128.524C333.633 128.796 333.701 129 333.701 129.136C333.701 129.424 333.469 129.684 333.005 129.916C332.733 130.052 332.517 130.12 332.357 130.12C332.205 130.12 332.077 130.084 331.973 130.012C331.877 129.94 331.805 129.864 331.757 129.784C331.717 129.704 331.657 129.584 331.577 129.424L330.953 128.128H327.629L327.005 129.424C326.925 129.584 326.861 129.7 326.813 129.772C326.773 129.844 326.701 129.92 326.597 130C326.501 130.072 326.373 130.108 326.213 130.108C326.061 130.108 325.849 130.04 325.577 129.904C325.113 129.68 324.881 129.424 324.881 129.136C324.881 129 324.949 128.796 325.085 128.524L328.325 121.816C328.413 121.632 328.545 121.484 328.721 121.372C328.905 121.26 329.097 121.204 329.297 121.204C329.729 121.204 330.049 121.412 330.257 121.828ZM329.285 124.708L328.493 126.352H330.089L329.285 124.708Z"
            fill="#FF8000"/>
      <rect width="375" height="240" fill="#FFCB9F"/>
      <path fill-rule="evenodd" clip-rule="evenodd"
            d="M382.345 -4.9397L288.732 -46.619L213.376 122.632L213.569 122.718L280.812 99.8726L307.746 162.611L382.345 -4.9397Z"
            fill="#4EC5BD" fill-opacity="0.75"/>
      <path fill-rule="evenodd" clip-rule="evenodd"
            d="M381.076 -7.4777L289.495 -48.2523L214.896 119.298L279.543 97.3346L306.478 160.073L381.076 -7.4777Z"
            fill="#9DD9D2"/>
      <path d="M318.34 18.1349C318.654 18.6525 318.745 19.0597 318.613 19.3565C318.534 19.5327 318.318 19.731 317.965 19.9513L312.959 23.1068L311.776 25.7638C311.681 25.9771 311.6 26.1353 311.532 26.2383C311.477 26.3362 311.382 26.4382 311.246 26.5443C311.109 26.6503 310.941 26.692 310.74 26.6692C310.539 26.6463 310.29 26.5689 309.993 26.4367C309.697 26.3046 309.472 26.1715 309.321 26.0374C309.17 25.9033 309.088 25.7502 309.075 25.578C309.067 25.3966 309.077 25.2508 309.104 25.1405C309.144 25.0251 309.214 24.8561 309.313 24.6335L310.483 22.0043L309.479 16.1732C309.406 15.7629 309.409 15.4697 309.487 15.2935C309.619 14.9967 309.949 14.8047 310.477 14.7174C311.009 14.6209 311.363 14.6119 311.539 14.6903C311.716 14.7688 311.838 14.8678 311.907 14.9874C312.019 15.1596 312.102 15.4241 312.154 15.7807L312.774 20.1907L316.466 17.7007C316.767 17.501 317 17.3883 317.167 17.3626C317.338 17.3277 317.507 17.3474 317.674 17.4217C317.85 17.5001 318.072 17.7379 318.34 18.1349Z"
            fill="#4CBCB4"/>
      <path d="M313.768 35.7794C313.78 35.9515 313.766 36.0953 313.726 36.2107C313.695 36.3302 313.632 36.4967 313.537 36.71L310.1 44.4306C309.815 45.0705 309.471 45.3677 309.069 45.3221C308.868 45.2992 308.633 45.228 308.364 45.1082C308.095 44.9885 307.892 44.8703 307.755 44.7538C307.618 44.6372 307.523 44.5279 307.468 44.4258C307.413 44.3237 307.39 44.2021 307.397 44.0609C307.421 43.8826 307.505 43.6311 307.65 43.3065L309.725 38.6463C309.365 38.8306 308.822 39.1389 308.096 39.5714C307.374 39.9945 306.918 40.2581 306.727 40.3621C306.536 40.4661 306.403 40.5402 306.328 40.5845C306.257 40.6195 306.104 40.6513 305.869 40.68C305.647 40.7036 305.43 40.6679 305.216 40.5729C305.012 40.4821 304.843 40.3511 304.708 40.1799C304.586 40.0035 304.509 39.8525 304.476 39.7267L304.433 39.5241C304.351 39.2097 304.203 38.5551 303.991 37.5603C303.782 36.5562 303.667 36.016 303.645 35.9397L301.558 40.6277C301.463 40.841 301.382 40.9992 301.314 41.1022C301.259 41.2001 301.166 41.2975 301.034 41.3943C300.783 41.5827 300.365 41.5469 299.781 41.2868C299.216 41.0349 298.919 40.7528 298.891 40.4405C298.875 40.2776 298.882 40.1364 298.913 40.0168C298.953 39.9014 299.023 39.7324 299.122 39.5098L302.56 31.7892C302.655 31.5759 302.729 31.4203 302.784 31.3224C302.852 31.2194 302.954 31.1148 303.09 31.0088C303.337 30.8296 303.752 30.87 304.337 31.1302C304.587 31.2417 304.786 31.3691 304.933 31.5125C305.094 31.6507 305.188 31.7646 305.214 31.8543L305.261 31.975L306.573 37.5264C309.078 36.1417 310.744 35.2331 311.57 34.8008C311.839 34.6206 312.266 34.6605 312.85 34.9207C313.444 35.1849 313.75 35.4712 313.768 35.7794Z"
            fill="#4CBCB4"/>
      <path d="M298.383 58.3164L298.714 58.2471C299.112 58.202 299.376 58.2083 299.506 58.2661C299.793 58.3941 299.988 58.7921 300.091 59.4601C300.15 59.8756 300.137 60.1807 300.05 60.3754C299.963 60.5702 299.826 60.7036 299.639 60.7756C299.46 60.8517 299.265 60.9037 299.053 60.9314C298.84 60.959 298.634 60.9842 298.436 61.0067C298.246 61.0334 297.882 61.0156 297.342 60.9534C296.803 60.8912 296.311 60.761 295.866 60.5628C295.43 60.3688 295.01 60.1149 294.605 59.8013C294.214 59.4826 293.837 59.0814 293.474 58.5977C293.125 58.1089 292.847 57.5851 292.64 57.0263C292.437 56.4582 292.347 55.8124 292.369 55.0888C292.405 54.3601 292.584 53.6341 292.906 52.9107C293.228 52.1873 293.639 51.5872 294.141 51.1103C294.646 50.6241 295.169 50.2734 295.709 50.0584C296.263 49.8381 296.839 49.7056 297.436 49.6606C298.568 49.5644 299.593 49.7208 300.511 50.1295C300.947 50.3236 301.357 50.5893 301.74 50.9266C302.137 51.2588 302.42 51.546 302.59 51.7883L302.837 52.1317C302.959 52.3081 303.051 52.4494 303.115 52.5556C303.269 52.8577 303.291 53.1339 303.179 53.3843C303.072 53.6255 302.861 53.8371 302.547 54.0194C301.962 54.3591 301.526 54.465 301.238 54.337C301.071 54.2627 300.88 54.0554 300.665 53.7151C300.416 53.2264 299.967 52.8375 299.318 52.5484C298.715 52.2801 298.028 52.2245 297.258 52.3817C296.889 52.4618 296.529 52.6461 296.179 52.9345C295.828 53.2228 295.548 53.6035 295.337 54.0765C295.131 54.5402 295.037 54.9988 295.058 55.4524C295.078 55.9059 295.185 56.3033 295.377 56.6446C295.761 57.3046 296.259 57.7708 296.871 58.0433C297.159 58.1713 297.444 58.254 297.728 58.2913C298.02 58.3327 298.239 58.3411 298.383 58.3164Z"
            fill="#4CBCB4"/>
      <path d="M293.699 67.5267L293.999 76.9614C294.016 77.3469 293.99 77.6185 293.92 77.7761C293.771 78.11 293.368 78.2917 292.71 78.3211C292.325 78.3384 292.039 78.3057 291.854 78.2231C291.678 78.1447 291.548 78.0369 291.464 77.8998C291.39 77.7667 291.346 77.6415 291.332 77.524C291.327 77.4106 291.319 77.2405 291.309 77.0137L291.254 75.1893L287.401 73.4736L286.009 74.654C285.833 74.7981 285.699 74.8996 285.606 74.9583C285.523 75.0211 285.4 75.072 285.238 75.1111C285.09 75.145 284.923 75.1207 284.737 75.0381C284.561 74.9597 284.351 74.7714 284.105 74.4734C283.683 73.9742 283.546 73.5577 283.695 73.2238C283.765 73.0662 283.949 72.8648 284.247 72.6196L291.466 66.5156C291.663 66.3477 291.892 66.2443 292.154 66.2053C292.425 66.1704 292.676 66.2046 292.908 66.3079C293.409 66.5308 293.673 66.9371 293.699 67.5267ZM291.086 70.3637L289.319 71.8607L291.169 72.6845L291.086 70.3637Z"
            fill="#4CBCB4"/>
      <path fill-rule="evenodd" clip-rule="evenodd"
            d="M338.545 119.927L328.767 131.82C355.993 150.701 370.024 162.244 391.817 183.45L386.745 170.013L402.777 172.704C380.681 150.379 366.598 138.789 338.545 119.927Z"
            fill="#FF8000"/>
      <path fill-rule="evenodd" clip-rule="evenodd"
            d="M339.099 118.457L324.226 122.103C326.981 155.603 330.127 173.807 341.511 203.272L346.611 192.053L356.917 199.473L357.065 199.432C345.487 168.082 342.243 150.037 339.099 118.457Z"
            fill="#FF8000"/>
      <path fill-rule="evenodd" clip-rule="evenodd"
            d="M336.594 118.446L321.721 122.092C324.468 155.48 329.843 172.606 341.172 201.879L345.996 191.438L356.304 199.001L356.34 198.993C344.762 167.643 339.739 150.026 336.594 118.446Z"
            fill="#FF8811"/>
      <path fill-rule="evenodd" clip-rule="evenodd"
            d="M339.782 117.454L330.004 129.347C357.229 148.228 371.26 159.771 393.053 180.977L387.982 167.54L404.014 170.231C381.918 147.906 367.835 136.315 339.782 117.454Z"
            fill="#FF8811"/>
      <path d="M324.185 87.9157C324.949 86.5509 326.912 86.5509 327.676 87.9157L330.1 92.2488C330.65 93.2313 331.902 93.5667 332.869 92.9907L337.135 90.4501C338.478 89.65 340.179 90.6319 340.158 92.1956L340.091 97.1602C340.075 98.2859 340.992 99.2024 342.118 99.1871L347.082 99.1199C348.646 99.0987 349.628 100.8 348.828 102.143L346.287 106.409C345.711 107.376 346.047 108.628 347.029 109.178L351.362 111.602C352.727 112.365 352.727 114.329 351.362 115.093L347.029 117.517C346.047 118.067 345.711 119.318 346.287 120.286L348.828 124.552C349.628 125.895 348.646 127.596 347.082 127.575L342.118 127.508C340.992 127.492 340.075 128.409 340.091 129.534L340.158 134.499C340.179 136.063 338.478 137.045 337.135 136.245L332.869 133.704C331.902 133.128 330.65 133.463 330.1 134.446L327.676 138.779C326.912 140.144 324.949 140.144 324.185 138.779L321.761 134.446C321.211 133.463 319.959 133.128 318.992 133.704L314.726 136.245C313.383 137.045 311.682 136.063 311.703 134.499L311.77 129.534C311.786 128.409 310.869 127.492 309.743 127.508L304.779 127.575C303.215 127.596 302.233 125.895 303.033 124.552L305.574 120.286C306.15 119.318 305.814 118.067 304.832 117.517L300.499 115.093C299.134 114.329 299.134 112.365 300.499 111.602L304.832 109.178C305.814 108.628 306.15 107.376 305.574 106.409L303.033 102.143C302.233 100.8 303.215 99.0987 304.779 99.1199L309.743 99.1871C310.869 99.2024 311.786 98.2859 311.77 97.1602L311.703 92.1956C311.682 90.6319 313.383 89.65 314.726 90.4501L318.992 92.9907C319.959 93.5667 321.211 93.2313 321.761 92.2488L324.185 87.9157Z"
            fill="#FF962D"/>
      <circle cx="325.931" cy="113.347" r="16.3152" fill="#FFAD69"/>
    </g>
  </g>
  <defs>
    <clipPath id="clip0">
      <rect width="375" height="236" fill="white"/>
    </clipPath>
  </defs>
</svg>
