<svg width="20" height="15" viewBox="0 0 20 15" fill="none" xmlns="http://www.w3.org/2000/svg">
<path d="M-5.60725e-07 7.03727C0.0138883 7.1949 0.0798465 7.40535 0.185176 7.52338L5.74073 13.8197C5.98307 14.1487 6.48273 14.1476 6.79025 13.8785C7.09777 13.6094 7.12122 13.1313 6.85185 12.8475L2.37268 7.77801L19.2593 7.77801C19.6683 7.77801 20 7.44638 20 7.03727C20 6.62816 19.6683 6.29653 19.2593 6.29653L2.37268 6.29653L6.85184 1.22709C7.14577 0.943235 7.06311 0.456421 6.75558 0.187347C6.44806 -0.0817267 5.98307 -0.0625428 5.74073 0.254865L0.185173 6.55116C0.0366881 6.71201 0.0083587 6.88657 -5.60725e-07 7.03727Z" fill="#696969"/>
</svg>
