<svg width="375" height="236" viewBox="0 0 375 236" fill="none" xmlns="http://www.w3.org/2000/svg">
  <g clip-path="url(#clip0)">
    <rect width="375" height="236" fill="white"/>
    <mask id="mask0" mask-type="alpha" maskUnits="userSpaceOnUse" x="0" y="-4" width="375" height="240">
      <rect y="-4" width="375" height="240" fill="#E1FFFB"/>
    </mask>
    <g mask="url(#mask0)">
      <rect y="-2" width="375" height="240" fill="#F6E0A3"/>
      <path d="M378 170C249.526 167.235 165.3 185.84 36.323 180.245C-92.6538 174.65 36.323 232 36.323 232H375L378 170Z"
            fill="#99E078"/>
      <path d="M375 176C232.558 173.035 142.5 190.5 -0.499989 184.5C-143.5 178.5 -0.499989 240 -0.499989 240H375V176Z"
            fill="#92D175"/>
      <path d="M280 121.535L319.629 94L356 121.535V179H280V121.535Z" fill="#FF962D"/>
      <mask id="mask1" mask-type="alpha" maskUnits="userSpaceOnUse" x="280" y="94" width="76" height="85">
        <path d="M280 121.535L319.629 94L356 121.535V179H280V121.535Z" fill="#FFAD69"/>
      </mask>
      <g mask="url(#mask1)">
        <path d="M280 121.535H356" stroke="#FFB06F" stroke-opacity="0.5"/>
        <path d="M280 129.516H356" stroke="#FFB06F" stroke-opacity="0.5"/>
        <path d="M280 137.498H356" stroke="#FFB06F" stroke-opacity="0.5"/>
        <path d="M280 145.479H356" stroke="#FFB06F" stroke-opacity="0.5"/>
        <path d="M280 153.46H356" stroke="#FFB06F" stroke-opacity="0.5"/>
        <path d="M280 161.441H356" stroke="#FFB06F" stroke-opacity="0.5"/>
        <path d="M280 169.422H356" stroke="#FFB06F" stroke-opacity="0.5"/>
        <path d="M280 177.404H356" stroke="#FFB06F" stroke-opacity="0.5"/>
        <path d="M280 113.554H356" stroke="#FFB06F" stroke-opacity="0.5"/>
        <path d="M280 105.573H356" stroke="#FFB06F" stroke-opacity="0.5"/>
        <path d="M280 97.5916H356" stroke="#FFB06F" stroke-opacity="0.5"/>
      </g>
      <rect x="307" y="145" width="21" height="34" fill="#FF8811"/>
      <path fill-rule="evenodd" clip-rule="evenodd"
            d="M318.545 90.0575L318.503 90L318.487 90.0117L318.472 90L318.43 90.0539L274 122.848L276.375 126.067L318.411 95.0396L359.031 126.971L361.503 123.826L318.545 90.0575Z"
            fill="#FF8811"/>
      <path d="M375 173L356 179V124.5L359 127L375 121.768V173Z" fill="#FFAD69"/>
      <path d="M362 128L360.5 126.5L375 121V124L362 128Z" fill="#FF962D"/>
      <path d="M375 122L359 127L318.5 90L375 71.2775V122Z" fill="#FF8811"/>
      <path d="M305.587 121.372C305.979 121.644 306.175 121.908 306.175 122.164C306.175 122.316 306.083 122.528 305.899 122.8L303.307 126.676V128.968C303.307 129.152 303.299 129.292 303.283 129.388C303.275 129.476 303.239 129.58 303.175 129.7C303.111 129.82 303.003 129.904 302.851 129.952C302.699 130 302.495 130.024 302.239 130.024C301.983 130.024 301.779 130 301.627 129.952C301.475 129.904 301.367 129.82 301.303 129.7C301.239 129.572 301.199 129.464 301.183 129.376C301.175 129.28 301.171 129.136 301.171 128.944V126.676L298.579 122.8C298.395 122.528 298.303 122.316 298.303 122.164C298.303 121.908 298.479 121.664 298.831 121.432C299.183 121.192 299.435 121.072 299.587 121.072C299.739 121.072 299.859 121.104 299.947 121.168C300.083 121.256 300.227 121.42 300.379 121.66L302.239 124.636L304.099 121.66C304.251 121.42 304.383 121.264 304.495 121.192C304.607 121.112 304.735 121.072 304.879 121.072C305.031 121.072 305.267 121.172 305.587 121.372ZM316.178 121.54C316.242 121.66 316.278 121.768 316.286 121.864C316.302 121.96 316.31 122.1 316.31 122.284V128.944C316.31 129.496 316.158 129.82 315.854 129.916C315.702 129.964 315.51 129.988 315.278 129.988C315.046 129.988 314.862 129.968 314.726 129.928C314.59 129.888 314.486 129.84 314.414 129.784C314.342 129.728 314.286 129.648 314.246 129.544C314.206 129.408 314.186 129.2 314.186 128.92V124.9C313.986 125.148 313.694 125.544 313.31 126.088C312.926 126.624 312.682 126.96 312.578 127.096C312.474 127.232 312.402 127.328 312.362 127.384C312.322 127.432 312.222 127.504 312.062 127.6C311.91 127.688 311.742 127.732 311.558 127.732C311.382 127.732 311.218 127.692 311.066 127.612C310.922 127.524 310.818 127.44 310.754 127.36L310.658 127.228C310.498 127.028 310.182 126.604 309.71 125.956C309.238 125.3 308.982 124.948 308.942 124.9V128.944C308.942 129.128 308.934 129.268 308.918 129.364C308.91 129.452 308.874 129.552 308.81 129.664C308.69 129.88 308.378 129.988 307.874 129.988C307.386 129.988 307.082 129.88 306.962 129.664C306.898 129.552 306.858 129.448 306.842 129.352C306.834 129.256 306.83 129.112 306.83 128.92V122.26C306.83 122.076 306.834 121.94 306.842 121.852C306.858 121.756 306.898 121.648 306.962 121.528C307.082 121.32 307.394 121.216 307.898 121.216C308.114 121.216 308.298 121.244 308.45 121.3C308.61 121.348 308.714 121.4 308.762 121.456L308.834 121.528L311.558 125.104C312.918 123.304 313.826 122.116 314.282 121.54C314.418 121.324 314.738 121.216 315.242 121.216C315.754 121.216 316.066 121.324 316.178 121.54ZM322.767 127.696L322.983 127.54C323.255 127.38 323.447 127.3 323.559 127.3C323.807 127.3 324.075 127.524 324.363 127.972C324.539 128.252 324.627 128.476 324.627 128.644C324.627 128.812 324.571 128.952 324.459 129.064C324.355 129.176 324.231 129.276 324.087 129.364C323.943 129.452 323.803 129.536 323.667 129.616C323.539 129.696 323.271 129.8 322.863 129.928C322.455 130.056 322.059 130.12 321.675 130.12C321.299 130.12 320.915 130.072 320.523 129.976C320.139 129.872 319.739 129.704 319.323 129.472C318.915 129.232 318.547 128.944 318.219 128.608C317.891 128.264 317.619 127.828 317.403 127.3C317.195 126.764 317.091 126.184 317.091 125.56C317.091 124.936 317.195 124.372 317.403 123.868C317.611 123.356 317.875 122.936 318.195 122.608C318.523 122.272 318.895 121.992 319.311 121.768C320.095 121.336 320.883 121.12 321.675 121.12C322.051 121.12 322.431 121.18 322.815 121.3C323.207 121.412 323.503 121.528 323.703 121.648L323.991 121.816C324.135 121.904 324.247 121.976 324.327 122.032C324.535 122.2 324.639 122.392 324.639 122.608C324.639 122.816 324.555 123.036 324.387 123.268C324.075 123.7 323.795 123.916 323.547 123.916C323.403 123.916 323.199 123.828 322.935 123.652C322.599 123.38 322.151 123.244 321.591 123.244C321.071 123.244 320.559 123.424 320.055 123.784C319.815 123.96 319.615 124.208 319.455 124.528C319.295 124.848 319.215 125.212 319.215 125.62C319.215 126.02 319.295 126.38 319.455 126.7C319.615 127.02 319.819 127.272 320.067 127.456C320.555 127.808 321.063 127.984 321.591 127.984C321.839 127.984 322.071 127.952 322.287 127.888C322.511 127.824 322.671 127.76 322.767 127.696ZM330.257 121.828L333.497 128.524C333.633 128.796 333.701 129 333.701 129.136C333.701 129.424 333.469 129.684 333.005 129.916C332.733 130.052 332.517 130.12 332.357 130.12C332.205 130.12 332.077 130.084 331.973 130.012C331.877 129.94 331.805 129.864 331.757 129.784C331.717 129.704 331.657 129.584 331.577 129.424L330.953 128.128H327.629L327.005 129.424C326.925 129.584 326.861 129.7 326.813 129.772C326.773 129.844 326.701 129.92 326.597 130C326.501 130.072 326.373 130.108 326.213 130.108C326.061 130.108 325.849 130.04 325.577 129.904C325.113 129.68 324.881 129.424 324.881 129.136C324.881 129 324.949 128.796 325.085 128.524L328.325 121.816C328.413 121.632 328.545 121.484 328.721 121.372C328.905 121.26 329.097 121.204 329.297 121.204C329.729 121.204 330.049 121.412 330.257 121.828ZM329.285 124.708L328.493 126.352H330.089L329.285 124.708Z"
            fill="#FF8000"/>
    </g>
  </g>
  <defs>
    <clipPath id="clip0">
      <rect width="375" height="236" fill="white"/>
    </clipPath>
  </defs>
</svg>
