<svg width="50" height="50" viewBox="0 0 50 50" fill="none" xmlns="http://www.w3.org/2000/svg">
<circle cx="25" cy="25" r="25" fill="#FFB06F"/>
<path d="M24.8 8C19.4256 8 15.1327 9.79844 12.275 13.45C9.41727 17.1016 8 22.4933 8 29.6C8.00256 29.9123 8.20606 30.2138 8.49475 30.333C8.78344 30.4522 9.14037 30.382 9.3625 30.1625L10.0375 29.4875C10.7004 36.1266 16.6123 42.4 24 42.4C27.5569 42.4 30.6669 41.3366 33.025 39.3C34.7168 37.8389 35.9998 35.883 36.825 33.5125C37.1655 33.69 37.6295 33.5769 37.85 33.2625C39.8374 30.4801 41.6 28.1939 41.6 23.6C41.6 20.381 40.1077 18.1533 38.225 17.425C37.0096 14.6612 35.4659 12.3237 33.3375 10.6625C31.1436 8.9502 28.3412 8 24.8 8V8ZM24.8 9.6C28.0588 9.6 30.4564 10.4373 32.3625 11.925C34.2686 13.4127 35.6951 15.5886 36.8625 18.3125C36.9581 18.5379 37.1628 18.7141 37.4 18.775C38.513 19.0532 40 20.6667 40 23.6C40 26.9942 39.0443 28.7751 37.625 30.8125C37.3696 29.4655 37.0643 28.0263 36.7875 26.6375C36.6893 26.1287 36.0132 25.836 35.575 26.1125C34.8094 26.5855 34.1852 26.9737 33.45 27.3375C33.2566 26.2062 33.2 25.1218 33.2 23.2C33.2069 22.6286 32.4592 22.2089 31.975 22.5125C29.1586 24.2727 26.9926 25.0468 23.425 25.7625L23.9875 22.95C24.0457 22.659 23.926 22.3398 23.6908 22.1588C23.4556 21.9779 23.1163 21.9441 22.85 22.075L14.6125 26.0125L14.3875 24.6625C14.3392 24.3757 14.1218 24.124 13.8452 24.0343C13.5685 23.9446 13.2448 24.0211 13.0375 24.225L9.71248 27.55C9.97363 21.7444 11.2528 17.3408 13.525 14.4375C16.0672 11.189 19.7743 9.6 24.8 9.6H24.8ZM22.1 24.2125L21.6125 26.6375C21.5067 27.1476 22.0248 27.6797 22.5375 27.5875C26.415 26.8824 28.8892 26.0872 31.625 24.55C31.6414 26.0004 31.7132 27.1796 32 28.4C32.0564 28.7609 32.2305 28.9974 32.6 29.2126C32.9656 29.3144 33.3237 29.1639 33.625 29.05C34.276 28.7436 34.9391 28.354 35.4375 28.0625L35.95 30.625C35.3373 33.8976 33.9443 36.3867 31.975 38.0875C29.9331 39.851 27.2431 40.8 24 40.8C17.0137 40.8 11.4161 34.1428 11.6 27.925L13.0625 26.4625L13.2125 27.325C13.2945 27.8128 13.9047 28.128 14.35 27.9125L22.1 24.2125ZM18.375 30.3375C17.706 30.3647 16.9971 30.598 16.4375 30.875C16.0612 31.0648 15.8915 31.5799 16.0813 31.9562C16.2711 32.3325 16.7862 32.5022 17.1625 32.3125C17.5148 32.1364 17.9326 31.9717 18.275 31.9375C18.6174 31.9031 18.8261 31.9511 19.0375 32.1625C19.3331 32.4668 19.8819 32.4693 20.1802 32.1677C20.4786 31.866 20.4701 31.3173 20.1625 31.0251C19.6475 30.5101 18.9751 30.3307 18.375 30.3376L18.375 30.3375ZM27.8375 31.025C27.5299 31.3172 27.5214 31.866 27.8197 32.1676C28.1181 32.4693 28.6669 32.4668 28.9625 32.1624C29.1739 31.951 29.3826 31.9032 29.725 31.9375C30.0674 31.9715 30.4852 32.1363 30.8375 32.3124C31.2138 32.5022 31.7289 32.3324 31.9187 31.9561C32.1084 31.5798 31.9388 31.0648 31.5625 30.8749C31.1148 30.6511 30.5326 30.4157 29.875 30.3499C29.1155 30.3335 28.2798 30.5981 27.8375 31.0249L27.8375 31.025ZM21.2338 35.3226C21.1344 35.6102 21.2174 35.9523 21.4375 36.1625C22.0732 36.7983 22.9476 37 23.8 37C24.6524 37 25.5268 36.7983 26.1625 36.1625C26.4701 35.8703 26.4786 35.3215 26.1803 35.0199C25.8819 34.7182 25.3331 34.7207 25.0375 35.0251C24.8732 35.1894 24.3476 35.4001 23.8 35.4001C23.2524 35.4001 22.7268 35.1894 22.5625 35.0251C21.9859 34.6259 21.4643 34.7958 21.2338 35.3226V35.3226Z" fill="white"/>
</svg>
