<svg width="375" height="236" viewBox="0 0 375 236" fill="none" xmlns="http://www.w3.org/2000/svg">
  <g clip-path="url(#clip0)">
    <rect width="375" height="236" fill="white"/>
    <mask id="mask0" mask-type="alpha" maskUnits="userSpaceOnUse" x="0" y="-4" width="375" height="240">
      <rect y="-4" width="375" height="240" fill="#E1FFFB"/>
    </mask>
    <g mask="url(#mask0)">
      <rect y="-4" width="375" height="240" fill="#E1FFFB"/>
      <path d="M418.591 125.304C397.421 113.707 269.904 122.43 202.124 190.43C134.345 258.431 196.5 254 196.5 254L418.591 230.183C418.591 230.183 439.761 136.9 418.591 125.304Z"
            fill="#99E078"/>
      <path d="M418.591 137.304C397.421 125.707 269.904 134.43 202.124 202.43C134.345 270.431 202.124 242.183 202.124 242.183H418.591C418.591 242.183 439.761 148.9 418.591 137.304Z"
            fill="#92D175"/>
      <circle cx="36" cy="24" r="77" fill="#F4D06F"/>
      <circle cx="33" cy="24" r="88" fill="#F4D06F" fill-opacity="0.4"/>
    </g>
  </g>
  <defs>
    <clipPath id="clip0">
      <rect width="375" height="236" fill="white"/>
    </clipPath>
  </defs>
</svg>
