<svg width="1000" height="667" viewBox="0 0 1000 667" fill="none" xmlns="http://www.w3.org/2000/svg">
  <rect width="1000" height="667" fill="#E1FFFB"/>
  <path d="M407.519 245.621C410.614 247.756 412.162 249.828 412.162 251.838C412.162 253.031 411.436 254.695 409.983 256.83L389.515 287.255V305.247C389.515 306.691 389.451 307.79 389.325 308.544C389.262 309.235 388.978 310.051 388.472 310.993C387.967 311.935 387.114 312.594 385.914 312.971C384.714 313.348 383.103 313.536 381.081 313.536C379.06 313.536 377.449 313.348 376.248 312.971C375.048 312.594 374.195 311.935 373.69 310.993C373.184 309.988 372.869 309.14 372.742 308.45C372.679 307.696 372.647 306.566 372.647 305.058V287.255L352.179 256.83C350.726 254.695 350 253.031 350 251.838C350 249.828 351.39 247.913 354.169 246.092C356.949 244.208 358.939 243.266 360.139 243.266C361.34 243.266 362.287 243.517 362.982 244.019C364.056 244.71 365.193 245.998 366.393 247.881L381.081 271.242L395.769 247.881C396.969 245.998 398.011 244.773 398.896 244.208C399.78 243.58 400.791 243.266 401.928 243.266C403.128 243.266 404.992 244.051 407.519 245.621Z"
        fill="#56D4CB"/>
  <path d="M448.767 309.475L450.469 308.257C452.611 307.008 454.124 306.383 455.006 306.383C456.96 306.383 459.071 308.132 461.339 311.63C462.726 313.816 463.419 315.565 463.419 316.877C463.419 318.188 462.978 319.281 462.096 320.156C461.276 321.03 460.3 321.811 459.165 322.498C458.031 323.185 456.928 323.841 455.857 324.466C454.848 325.09 452.737 325.902 449.523 326.902C446.309 327.901 443.19 328.401 440.165 328.401C437.203 328.401 434.178 328.026 431.09 327.277C428.065 326.465 424.914 325.153 421.637 323.342C418.423 321.468 415.524 319.219 412.94 316.596C410.356 313.91 408.214 310.505 406.512 306.383C404.873 302.198 404.054 297.669 404.054 292.797C404.054 287.925 404.873 283.522 406.512 279.587C408.151 275.589 410.23 272.31 412.751 269.749C415.335 267.125 418.265 264.939 421.542 263.19C427.718 259.817 433.926 258.131 440.165 258.131C443.127 258.131 446.12 258.599 449.145 259.536C452.233 260.411 454.565 261.316 456.14 262.253L458.409 263.565C459.543 264.252 460.426 264.814 461.056 265.251C462.694 266.563 463.514 268.062 463.514 269.749C463.514 271.373 462.852 273.09 461.529 274.902C459.071 278.275 456.865 279.961 454.911 279.961C453.777 279.961 452.17 279.274 450.09 277.9C447.444 275.776 443.914 274.714 439.503 274.714C435.407 274.714 431.373 276.12 427.403 278.931C425.513 280.305 423.937 282.241 422.677 284.74C421.416 287.238 420.786 290.08 420.786 293.266C420.786 296.389 421.416 299.2 422.677 301.698C423.937 304.197 425.544 306.164 427.498 307.601C431.342 310.349 435.344 311.724 439.503 311.724C441.457 311.724 443.284 311.474 444.986 310.974C446.75 310.474 448.011 309.975 448.767 309.475Z"
        fill="#FFB06F"/>
  <path d="M515.136 245.858C515.648 244.898 516.512 244.226 517.729 243.842C518.946 243.458 520.483 243.266 522.34 243.266C524.197 243.266 525.67 243.426 526.758 243.746C527.847 244.066 528.68 244.45 529.256 244.898C529.832 245.346 530.281 245.986 530.601 246.818C530.921 247.906 531.081 249.57 531.081 251.81V305.088C531.081 306.56 531.017 307.68 530.889 308.448C530.825 309.152 530.537 309.984 530.024 310.944C529.128 312.672 526.63 313.536 522.532 313.536C518.049 313.536 515.424 312.352 514.655 309.984C514.271 308.896 514.079 307.232 514.079 304.992V285.505H488.624V305.088C488.624 306.56 488.56 307.68 488.432 308.448C488.368 309.152 488.079 309.984 487.567 310.944C486.671 312.672 484.173 313.536 480.075 313.536C475.592 313.536 472.966 312.352 472.198 309.984C471.814 308.896 471.622 307.232 471.622 304.992V251.714C471.622 250.242 471.654 249.154 471.718 248.45C471.846 247.682 472.166 246.818 472.678 245.858C473.575 244.13 476.072 243.266 480.171 243.266C484.653 243.266 487.311 244.45 488.143 246.818C488.464 247.906 488.624 249.57 488.624 251.81V271.393H514.079V251.714C514.079 250.242 514.111 249.154 514.175 248.45C514.303 247.682 514.623 246.818 515.136 245.858Z"
        fill="#FFAD69"/>
  <path d="M573.089 263.049L598.406 315.822C599.469 317.966 600 319.574 600 320.646C600 322.916 598.187 324.965 594.561 326.793C592.436 327.865 590.748 328.401 589.498 328.401C588.31 328.401 587.31 328.117 586.497 327.55C585.747 326.982 585.185 326.383 584.81 325.753C584.497 325.122 584.028 324.177 583.403 322.916L578.527 312.701H552.554L547.678 322.916C547.053 324.177 546.553 325.091 546.178 325.658C545.865 326.226 545.302 326.825 544.49 327.455C543.74 328.023 542.739 328.306 541.489 328.306C540.302 328.306 538.645 327.77 536.52 326.699C532.894 324.933 531.081 322.916 531.081 320.646C531.081 319.574 531.612 317.966 532.675 315.822L557.992 262.954C558.68 261.504 559.711 260.337 561.087 259.455C562.524 258.572 564.025 258.131 565.587 258.131C568.963 258.131 571.463 259.77 573.089 263.049ZM565.494 285.747L559.305 298.704H571.776L565.494 285.747Z"
        fill="#FFAD69"/>
  <path d="M551.58 282.907C551.456 283.154 551.556 283.454 551.803 283.578C552.05 283.701 552.351 283.601 552.474 283.354L551.58 282.907ZM559.212 269.874C559.354 269.638 559.278 269.33 559.041 269.188C558.804 269.046 558.497 269.123 558.355 269.36L559.212 269.874ZM552.474 283.354C554.508 279.287 555.189 277.585 555.862 276.07C556.527 274.575 557.192 273.242 559.212 269.874L558.355 269.36C556.321 272.749 555.635 274.119 554.948 275.664C554.27 277.19 553.6 278.866 551.58 282.907L552.474 283.354Z"
        fill="white" fill-opacity="0.7"/>
  <path d="M559.703 266.663C559.564 266.901 559.645 267.207 559.883 267.346C560.122 267.486 560.428 267.405 560.567 267.166L559.703 266.663ZM562.578 263.813C562.732 263.584 562.669 263.273 562.44 263.12C562.21 262.967 561.899 263.029 561.746 263.259L562.578 263.813ZM560.567 267.166C561.817 265.024 561.237 265.826 562.578 263.813L561.746 263.259C560.385 265.3 560.908 264.596 559.703 266.663L560.567 267.166Z"
        fill="white" fill-opacity="0.7"/>
  <path d="M590.679 247.32H643.199C645.214 247.32 646.694 247.57 647.639 248.071C648.583 248.509 649.213 249.229 649.528 250.231C649.843 251.232 650 252.547 650 254.174C650 255.802 649.843 257.116 649.528 258.118C649.213 259.057 648.678 259.714 647.922 260.09C646.788 260.653 645.183 260.935 643.104 260.935H625.063V308.164C625.063 309.604 625 310.668 624.874 311.356C624.811 312.045 624.527 312.859 624.024 313.798C623.583 314.674 622.764 315.3 621.568 315.675C620.371 316.051 618.797 316.239 616.845 316.239C614.893 316.239 613.318 316.051 612.122 315.675C610.988 315.3 610.17 314.674 609.666 313.798C609.225 312.859 608.942 312.045 608.816 311.356C608.753 310.605 608.721 309.51 608.721 308.07V260.935H590.585C588.57 260.935 587.09 260.716 586.145 260.277C585.201 259.777 584.571 259.025 584.256 258.024C583.941 257.022 583.784 255.708 583.784 254.08C583.784 252.453 583.941 251.17 584.256 250.231C584.571 249.229 585.106 248.541 585.862 248.165C586.995 247.602 588.601 247.32 590.679 247.32Z"
        fill="#FFB06F"/>
  <path d="M587.788 249.525C587.513 249.553 587.313 249.798 587.34 250.072C587.368 250.347 587.613 250.548 587.888 250.52L587.788 249.525ZM602.882 250.468C603.157 250.489 603.397 250.282 603.418 250.007C603.438 249.732 603.232 249.492 602.957 249.471L602.882 250.468ZM587.888 250.52C591.273 250.182 592.936 250.016 594.792 250.009C596.653 250.003 598.711 250.156 602.882 250.468L602.957 249.471C598.803 249.16 596.698 249.003 594.789 249.009C592.875 249.016 591.159 249.188 587.788 249.525L587.888 250.52Z"
        fill="white" fill-opacity="0.7"/>
  <path d="M605.938 249.289C605.662 249.287 605.437 249.51 605.436 249.786C605.434 250.063 605.657 250.287 605.933 250.289L605.938 249.289ZM609.843 250.354C610.118 250.372 610.356 250.163 610.374 249.887C610.392 249.612 610.183 249.374 609.907 249.356L609.843 250.354ZM605.933 250.289C608.414 250.3 607.429 250.198 609.843 250.354L609.907 249.356C607.459 249.198 608.33 249.299 605.938 249.289L605.933 250.289Z"
        fill="white" fill-opacity="0.7"/>
  <path d="M353.588 252.607C353.522 252.876 353.687 253.146 353.956 253.211C354.224 253.276 354.494 253.112 354.559 252.843L353.588 252.607ZM360.685 249.155C360.953 249.224 361.226 249.064 361.295 248.797C361.364 248.529 361.203 248.256 360.936 248.187L360.685 249.155ZM354.559 252.843C355.161 250.367 357.62 248.361 360.685 249.155L360.936 248.187C357.245 247.231 354.299 249.678 353.588 252.607L354.559 252.843Z"
        fill="white" fill-opacity="0.7"/>
  <path d="M390.088 262.648C389.971 262.898 390.078 263.196 390.328 263.313C390.579 263.43 390.876 263.323 390.993 263.072L390.088 262.648ZM400.357 249.021C400.55 248.824 400.547 248.507 400.35 248.314C400.152 248.121 399.836 248.124 399.643 248.321L400.357 249.021ZM390.993 263.072C393.746 257.195 395.467 254.017 400.357 249.021L399.643 248.321C394.644 253.428 392.866 256.715 390.088 262.648L390.993 263.072Z"
        fill="white" fill-opacity="0.7"/>
  <path d="M474.502 266.284C474.527 266.559 474.77 266.762 475.045 266.737C475.32 266.712 475.523 266.469 475.498 266.194L474.502 266.284ZM476.164 250.131C476.224 249.861 476.054 249.594 475.784 249.534C475.515 249.475 475.248 249.645 475.188 249.914L476.164 250.131ZM475.498 266.194C474.825 258.792 474.828 256.145 476.164 250.131L475.188 249.914C473.821 256.063 473.824 258.821 474.502 266.284L475.498 266.194Z"
        fill="white" fill-opacity="0.7"/>
  <path d="M517.513 266.284C517.538 266.559 517.782 266.762 518.057 266.737C518.332 266.712 518.534 266.469 518.509 266.194L517.513 266.284ZM519.175 250.131C519.235 249.861 519.065 249.594 518.796 249.534C518.526 249.475 518.259 249.645 518.199 249.914L519.175 250.131ZM518.509 266.194C517.837 258.792 517.839 256.145 519.175 250.131L518.199 249.914C516.833 256.063 516.835 258.821 517.513 266.284L518.509 266.194Z"
        fill="white" fill-opacity="0.7"/>
  <path d="M610.848 309.521C610.869 309.796 611.11 310.002 611.385 309.981C611.66 309.959 611.866 309.719 611.845 309.443L610.848 309.521ZM612.653 286.602C612.705 286.331 612.526 286.069 612.255 286.018C611.984 285.966 611.722 286.145 611.671 286.416L612.653 286.602ZM611.845 309.443C611.031 298.94 611.033 295.159 612.653 286.602L611.671 286.416C610.029 295.089 610.03 298.965 610.848 309.521L611.845 309.443Z"
        fill="white" fill-opacity="0.7"/>
  <path d="M493.196 273.447C492.922 273.48 492.727 273.73 492.761 274.004C492.794 274.278 493.044 274.473 493.318 274.439L493.196 273.447ZM509.393 274.606C509.664 274.657 509.926 274.479 509.978 274.208C510.029 273.936 509.851 273.675 509.58 273.623L509.393 274.606ZM493.318 274.439C500.695 273.537 503.341 273.457 509.393 274.606L509.58 273.623C503.392 272.449 500.635 272.537 493.196 273.447L493.318 274.439Z"
        fill="white" fill-opacity="0.7"/>
  <path d="M411.077 278.114C410.919 278.34 410.974 278.652 411.2 278.811C411.426 278.969 411.738 278.914 411.896 278.688L411.077 278.114ZM423.935 266.648C424.162 266.49 424.217 266.178 424.058 265.952C423.9 265.726 423.588 265.671 423.362 265.829L423.935 266.648ZM411.896 278.688C414.265 275.303 415.592 273.482 417.161 271.913C418.73 270.345 420.551 269.018 423.935 266.648L423.362 265.829C419.99 268.19 418.095 269.565 416.454 271.206C414.813 272.847 413.438 274.742 411.077 278.114L411.896 278.688Z"
        fill="white" fill-opacity="0.7"/>
  <path d="M375.861 305.526C375.915 305.797 376.179 305.972 376.449 305.918C376.72 305.864 376.896 305.601 376.842 305.33L375.861 305.526ZM376.842 291.337C376.896 291.066 376.72 290.803 376.449 290.748C376.179 290.694 375.915 290.87 375.861 291.141L376.842 291.337ZM376.842 305.33C376.164 301.942 375.838 300.133 375.838 298.333C375.838 296.534 376.164 294.725 376.842 291.337L375.861 291.141C375.187 294.509 374.838 296.417 374.838 298.333C374.838 300.25 375.187 302.158 375.861 305.526L376.842 305.33Z"
        fill="white" fill-opacity="0.7"/>
  <path d="M354.054 312.833C357.18 320.744 359.395 324.623 364.865 329.725H388.514C389.407 324.722 385.318 326.365 384.46 318.239L379.054 324.996L374.324 303.374L369.595 323.644L354.054 312.833Z"
        fill="#99E078"/>
  <path d="M386.487 310.833L385.135 327.725H392.568L386.487 310.833Z" fill="#92D175"/>
  <path d="M400 316.239C397.601 320.496 396.763 323.007 395.946 327.725H403.378C402.593 323.176 401.888 320.657 400 316.239Z"
        fill="#92D175"/>
  <path d="M402.703 327.725H410.135L408.108 319.617L406.757 313.536L404.054 322.32L402.703 327.725Z" fill="#92D175"/>
  <path d="M393.243 306.779L389.189 327.725H396.622L393.243 306.779Z" fill="#92D175"/>
  <path d="M1000 305C696 361.295 381.333 292.18 0 337.885V666H1000V305Z" fill="#99E078"/>
  <path d="M582 321.015C582.708 326.543 583.263 329.356 584.981 333.027H609.827C610.619 327.163 610.504 323.876 609.827 318.012L604.858 325.019C602.931 317.8 601.885 313.77 598.895 306L597.901 326.02C597.163 320.485 595.589 317.712 591.938 313.007C589.86 318.56 589.129 322.006 588.957 329.023C586.68 324.524 585.104 322.936 582 321.015Z"
        fill="#99E078"/>
  <path d="M414.865 323.198C415.254 326.239 414.816 326.382 415.761 328.401H429.426C429.862 325.176 429.799 323.368 429.426 320.143L426.693 323.997C425.634 320.026 425.058 317.81 423.414 313.536L422.867 324.547C422.461 321.503 421.596 319.978 419.587 317.39C418.445 320.444 418.042 322.34 417.948 326.199C416.696 323.724 416.572 324.255 414.865 323.198Z"
        fill="#99E078"/>
  <path d="M595 322.091L597.585 332.973H624.73V310L618.267 329.346V312.418L614.389 330.555L611.804 319.673L609.219 326.927L605.341 312.418L602.5 330.555L595 322.091Z"
        fill="#92D175"/>
  <path d="M422.973 328.401L423.89 319.816C425.84 323.797 426.262 325.547 426.641 328.401C427.632 322.293 429.098 319.278 432.143 314.093C433.234 320.343 433.723 323.633 433.977 328.401H439.02C438.954 324.464 439.052 322.163 439.479 317.908C441.957 322.312 442.91 324.588 444.064 328.401C444.701 322.126 446.496 318.57 448.649 312.185L447.732 321.724L446.815 328.401H444.064H439.02H433.977H426.641H422.973Z"
        fill="#92D175"/>
  <path d="M433.784 328.401H439.189L437.388 324.647L435.586 321.644L434.685 324.647L433.784 328.401Z" fill="#92D175"/>
  <path d="M447.297 328.401C447.418 327.16 448.115 325.085 450.135 319.714C450.895 325.476 451.084 327.268 451.081 328.401C451.363 323.832 451.997 321.299 453.919 316.818C456.087 322.611 456.768 325.222 456.757 328.401C457.876 325.123 456.87 323.472 458.649 320.679C459.974 323.827 460.573 325.503 461.487 328.401C461.865 322.708 462.575 320.508 464.324 314.887C464.252 322.223 464.576 324.613 466.216 328.401H461.487H456.757H451.081H447.297Z"
        fill="#92D175"/>
  <path d="M425.398 265.147C425.169 265.3 425.107 265.611 425.26 265.84C425.413 266.07 425.723 266.132 425.953 265.979L425.398 265.147ZM429.895 264.008C430.155 263.917 430.293 263.632 430.202 263.371C430.111 263.111 429.826 262.973 429.565 263.064L429.895 264.008ZM425.953 265.979C426.976 265.297 427.441 264.993 427.906 264.763C428.372 264.533 428.841 264.376 429.895 264.008L429.565 263.064C428.543 263.421 427.999 263.602 427.463 263.866C426.927 264.131 426.403 264.478 425.398 265.147L425.953 265.979Z"
        fill="white" fill-opacity="0.7"/>
  <path d="M571.622 293.266L575.676 301.374H566.216" stroke="white" stroke-opacity="0.7" stroke-linecap="round"
        stroke-linejoin="round"/>
  <path d="M689.718 50.2653C661.171 46.7512 649.57 79.3065 649.57 79.3065C649.57 79.3065 608.693 77.1284 608.693 101.087C608.693 125.046 656.87 120.69 676.578 120.69C696.287 120.69 731.965 125.046 736.435 101.087C738.074 92.2983 732.055 82.2106 713.806 82.2106C709.389 67.7771 710.826 57.8684 689.718 50.2653Z"
        fill="#F7F7F5"/>
  <path d="M430.882 133.482C423.196 121.689 421.96 118.827 406.323 109.235C339.475 81.9353 360.848 169.845 394.988 179.052C429.129 188.259 443.456 174.19 451.527 160.412C455.817 153.089 448.119 133.482 430.882 133.482Z"
        fill="#F7F7F5"/>
  <path d="M581.059 91.7134C571.263 101.517 572.693 109 575.956 119.183C579.219 129.366 605.853 139.701 624.073 128.58C639.72 133.428 646.416 122.596 648.861 114.846C651.305 107.095 657.037 104.891 647.403 88.8219C646.967 74.6053 637.289 71.1146 615.373 76.4014C596.499 70.0905 584.166 74.8267 581.059 91.7134Z"
        fill="white"/>
  <path d="M337.193 116C327.396 125.804 323.929 141.817 327.193 152C330.456 162.183 359.973 179.62 378.193 168.5C407.635 170.65 432.193 161.5 421.193 131.5C419.877 110.632 408.693 93.5 372.193 107.5C353.319 101.189 340.299 99.1133 337.193 116Z"
        fill="white"/>
</svg>
