<svg width="375" height="667" viewBox="0 0 375 667" fill="none" xmlns="http://www.w3.org/2000/svg">
  <g clip-path="url(#clip0)">
    <rect width="375" height="667" fill="#E1FFFB"/>
    <path d="M95.519 242.621C98.6144 244.756 100.162 246.828 100.162 248.838C100.162 250.031 99.4357 251.695 97.9827 253.83L77.5147 284.255V302.247C77.5147 303.691 77.4515 304.79 77.3252 305.544C77.262 306.235 76.9777 307.051 76.4723 307.993C75.9669 308.935 75.1141 309.594 73.9138 309.971C72.7135 310.348 71.1026 310.536 69.0811 310.536C67.0596 310.536 65.4486 310.348 64.2484 309.971C63.0481 309.594 62.1952 308.935 61.6899 307.993C61.1845 306.988 60.8686 306.14 60.7423 305.45C60.6791 304.696 60.6475 303.566 60.6475 302.058V284.255L40.1795 253.83C38.7265 251.695 38 250.031 38 248.838C38 246.828 39.3898 244.913 42.1694 243.092C44.949 241.208 46.939 240.266 48.1393 240.266C49.3395 240.266 50.2871 240.517 50.982 241.019C52.056 241.71 53.1931 242.998 54.3934 244.881L69.0811 268.242L83.7688 244.881C84.9691 242.998 86.0114 241.773 86.8959 241.208C87.7803 240.58 88.791 240.266 89.9282 240.266C91.1284 240.266 92.992 241.051 95.519 242.621Z"
          fill="#56D4CB"/>
    <path d="M136.767 306.475L138.468 305.257C140.611 304.008 142.124 303.383 143.006 303.383C144.959 303.383 147.071 305.132 149.339 308.63C150.726 310.816 151.419 312.565 151.419 313.877C151.419 315.188 150.978 316.281 150.096 317.156C149.276 318.03 148.3 318.811 147.165 319.498C146.031 320.185 144.928 320.841 143.857 321.466C142.848 322.09 140.737 322.902 137.523 323.902C134.309 324.901 131.19 325.401 128.165 325.401C125.203 325.401 122.178 325.026 119.09 324.277C116.065 323.465 112.914 322.153 109.637 320.342C106.423 318.468 103.524 316.219 100.94 313.596C98.3561 310.91 96.2134 307.505 94.5119 303.383C92.8733 299.198 92.0541 294.669 92.0541 289.797C92.0541 284.925 92.8733 280.522 94.5119 276.587C96.1504 272.589 98.23 269.31 100.751 266.749C103.335 264.125 106.265 261.939 109.542 260.19C115.718 256.817 121.926 255.131 128.165 255.131C131.127 255.131 134.12 255.599 137.145 256.536C140.233 257.411 142.565 258.316 144.14 259.253L146.409 260.565C147.543 261.252 148.426 261.814 149.056 262.251C150.694 263.563 151.514 265.062 151.514 266.749C151.514 268.373 150.852 270.09 149.528 271.902C147.071 275.275 144.865 276.961 142.911 276.961C141.777 276.961 140.17 276.274 138.09 274.9C135.443 272.776 131.914 271.714 127.503 271.714C123.407 271.714 119.373 273.12 115.403 275.931C113.512 277.305 111.937 279.241 110.677 281.74C109.416 284.238 108.786 287.08 108.786 290.266C108.786 293.389 109.416 296.2 110.677 298.698C111.937 301.197 113.544 303.164 115.498 304.601C119.342 307.349 123.344 308.724 127.503 308.724C129.457 308.724 131.284 308.474 132.986 307.974C134.75 307.474 136.011 306.975 136.767 306.475Z"
          fill="#FFB06F"/>
    <path d="M203.136 242.858C203.648 241.898 204.512 241.226 205.729 240.842C206.946 240.458 208.483 240.266 210.34 240.266C212.197 240.266 213.67 240.426 214.758 240.746C215.847 241.066 216.68 241.45 217.256 241.898C217.832 242.346 218.281 242.986 218.601 243.818C218.921 244.906 219.081 246.57 219.081 248.81V302.088C219.081 303.56 219.017 304.68 218.889 305.448C218.825 306.152 218.537 306.984 218.024 307.944C217.128 309.672 214.63 310.536 210.532 310.536C206.049 310.536 203.424 309.352 202.655 306.984C202.271 305.896 202.079 304.232 202.079 301.992V282.505H176.624V302.088C176.624 303.56 176.56 304.68 176.432 305.448C176.368 306.152 176.079 306.984 175.567 307.944C174.671 309.672 172.173 310.536 168.075 310.536C163.592 310.536 160.966 309.352 160.198 306.984C159.814 305.896 159.622 304.232 159.622 301.992V248.714C159.622 247.242 159.654 246.154 159.718 245.45C159.846 244.682 160.166 243.818 160.678 242.858C161.575 241.13 164.072 240.266 168.171 240.266C172.653 240.266 175.311 241.45 176.143 243.818C176.464 244.906 176.624 246.57 176.624 248.81V268.393H202.079V248.714C202.079 247.242 202.111 246.154 202.175 245.45C202.303 244.682 202.623 243.818 203.136 242.858Z"
          fill="#FFAD69"/>
    <path d="M261.089 260.049L286.406 312.822C287.469 314.966 288 316.574 288 317.646C288 319.916 286.187 321.965 282.561 323.793C280.436 324.865 278.748 325.401 277.498 325.401C276.31 325.401 275.31 325.117 274.497 324.55C273.747 323.982 273.185 323.383 272.81 322.753C272.497 322.122 272.028 321.177 271.403 319.916L266.527 309.701H240.554L235.678 319.916C235.053 321.177 234.553 322.091 234.178 322.658C233.865 323.226 233.302 323.825 232.49 324.455C231.74 325.023 230.739 325.306 229.489 325.306C228.301 325.306 226.645 324.77 224.52 323.699C220.894 321.933 219.081 319.916 219.081 317.646C219.081 316.574 219.612 314.966 220.675 312.822L245.992 259.954C246.68 258.504 247.711 257.337 249.087 256.455C250.524 255.572 252.025 255.131 253.587 255.131C256.963 255.131 259.463 256.77 261.089 260.049ZM253.494 282.747L247.305 295.704H259.776L253.494 282.747Z"
          fill="#FFAD69"/>
    <path d="M239.58 279.907C239.456 280.154 239.556 280.454 239.803 280.578C240.05 280.701 240.351 280.601 240.474 280.354L239.58 279.907ZM247.212 266.874C247.354 266.638 247.278 266.33 247.041 266.188C246.804 266.046 246.497 266.123 246.355 266.36L247.212 266.874ZM240.474 280.354C242.508 276.287 243.189 274.585 243.862 273.07C244.527 271.575 245.192 270.242 247.212 266.874L246.355 266.36C244.321 269.749 243.635 271.119 242.948 272.664C242.27 274.19 241.6 275.866 239.58 279.907L240.474 280.354Z"
          fill="white" fill-opacity="0.7"/>
    <path d="M247.703 263.663C247.564 263.901 247.645 264.207 247.883 264.346C248.122 264.486 248.428 264.405 248.567 264.166L247.703 263.663ZM250.578 260.813C250.732 260.584 250.669 260.273 250.44 260.12C250.21 259.967 249.899 260.029 249.746 260.259L250.578 260.813ZM248.567 264.166C249.817 262.024 249.237 262.826 250.578 260.813L249.746 260.259C248.385 262.3 248.908 261.596 247.703 263.663L248.567 264.166Z"
          fill="white" fill-opacity="0.7"/>
    <path d="M278.679 244.32H331.199C333.214 244.32 334.694 244.57 335.639 245.071C336.583 245.509 337.213 246.229 337.528 247.231C337.843 248.232 338 249.547 338 251.174C338 252.802 337.843 254.116 337.528 255.118C337.213 256.057 336.678 256.714 335.922 257.09C334.788 257.653 333.183 257.935 331.104 257.935H313.063V305.164C313.063 306.604 313 307.668 312.874 308.356C312.811 309.045 312.527 309.859 312.024 310.798C311.583 311.674 310.764 312.3 309.568 312.675C308.371 313.051 306.797 313.239 304.845 313.239C302.893 313.239 301.318 313.051 300.122 312.675C298.988 312.3 298.17 311.674 297.666 310.798C297.225 309.859 296.942 309.045 296.816 308.356C296.753 307.605 296.721 306.51 296.721 305.07V257.935H278.585C276.57 257.935 275.09 257.716 274.145 257.277C273.201 256.777 272.571 256.025 272.256 255.024C271.941 254.022 271.784 252.708 271.784 251.08C271.784 249.453 271.941 248.17 272.256 247.231C272.571 246.229 273.106 245.541 273.862 245.165C274.995 244.602 276.601 244.32 278.679 244.32Z"
          fill="#FFB06F"/>
    <path d="M275.788 246.525C275.513 246.553 275.313 246.798 275.34 247.072C275.368 247.347 275.613 247.548 275.888 247.52L275.788 246.525ZM290.882 247.468C291.157 247.489 291.397 247.282 291.418 247.007C291.438 246.732 291.232 246.492 290.957 246.471L290.882 247.468ZM275.888 247.52C279.273 247.182 280.936 247.016 282.792 247.009C284.653 247.003 286.711 247.156 290.882 247.468L290.957 246.471C286.803 246.16 284.698 246.003 282.789 246.009C280.875 246.016 279.159 246.188 275.788 246.525L275.888 247.52Z"
          fill="white" fill-opacity="0.7"/>
    <path d="M293.938 246.289C293.662 246.287 293.437 246.51 293.436 246.786C293.434 247.063 293.657 247.287 293.933 247.289L293.938 246.289ZM297.843 247.354C298.118 247.372 298.356 247.163 298.374 246.887C298.392 246.612 298.183 246.374 297.907 246.356L297.843 247.354ZM293.933 247.289C296.414 247.3 295.429 247.198 297.843 247.354L297.907 246.356C295.459 246.198 296.33 246.299 293.938 246.289L293.933 247.289Z"
          fill="white" fill-opacity="0.7"/>
    <path d="M41.5876 249.607C41.5224 249.876 41.6872 250.146 41.9555 250.211C42.2239 250.276 42.4942 250.112 42.5594 249.843L41.5876 249.607ZM48.6854 246.155C48.9528 246.224 49.2256 246.064 49.2948 245.797C49.364 245.529 49.2034 245.256 48.9361 245.187L48.6854 246.155ZM42.5594 249.843C43.1606 247.367 45.6198 245.361 48.6854 246.155L48.9361 245.187C45.2449 244.231 42.2988 246.678 41.5876 249.607L42.5594 249.843Z"
          fill="white" fill-opacity="0.7"/>
    <path d="M78.0877 259.648C77.9706 259.898 78.0784 260.196 78.3285 260.313C78.5785 260.43 78.8762 260.323 78.9933 260.072L78.0877 259.648ZM88.3573 246.021C88.5505 245.824 88.5471 245.507 88.3497 245.314C88.1524 245.121 87.8358 245.124 87.6427 245.321L88.3573 246.021ZM78.9933 260.072C81.7462 254.195 83.4672 251.017 88.3573 246.021L87.6427 245.321C82.6445 250.428 80.8664 253.715 78.0877 259.648L78.9933 260.072Z"
          fill="white" fill-opacity="0.7"/>
    <path d="M162.502 263.284C162.527 263.559 162.77 263.762 163.045 263.737C163.32 263.712 163.523 263.469 163.498 263.194L162.502 263.284ZM164.164 247.131C164.224 246.861 164.054 246.594 163.784 246.534C163.515 246.475 163.248 246.645 163.188 246.914L164.164 247.131ZM163.498 263.194C162.825 255.792 162.828 253.145 164.164 247.131L163.188 246.914C161.821 253.063 161.824 255.821 162.502 263.284L163.498 263.194Z"
          fill="white" fill-opacity="0.7"/>
    <path d="M205.513 263.284C205.538 263.559 205.782 263.762 206.057 263.737C206.332 263.712 206.534 263.469 206.509 263.194L205.513 263.284ZM207.175 247.131C207.235 246.861 207.065 246.594 206.796 246.534C206.526 246.475 206.259 246.645 206.199 246.914L207.175 247.131ZM206.509 263.194C205.837 255.792 205.839 253.145 207.175 247.131L206.199 246.914C204.833 253.063 204.835 255.821 205.513 263.284L206.509 263.194Z"
          fill="white" fill-opacity="0.7"/>
    <path d="M298.848 306.521C298.869 306.796 299.11 307.002 299.385 306.981C299.66 306.959 299.866 306.719 299.845 306.443L298.848 306.521ZM300.653 283.602C300.705 283.331 300.526 283.069 300.255 283.018C299.984 282.966 299.722 283.145 299.671 283.416L300.653 283.602ZM299.845 306.443C299.031 295.94 299.033 292.159 300.653 283.602L299.671 283.416C298.029 292.089 298.03 295.965 298.848 306.521L299.845 306.443Z"
          fill="white" fill-opacity="0.7"/>
    <path d="M181.196 270.447C180.922 270.48 180.727 270.73 180.761 271.004C180.794 271.278 181.044 271.473 181.318 271.439L181.196 270.447ZM197.393 271.606C197.664 271.657 197.926 271.479 197.978 271.208C198.029 270.936 197.851 270.675 197.58 270.623L197.393 271.606ZM181.318 271.439C188.695 270.537 191.341 270.457 197.393 271.606L197.58 270.623C191.392 269.449 188.635 269.537 181.196 270.447L181.318 271.439Z"
          fill="white" fill-opacity="0.7"/>
    <path d="M99.077 275.114C98.9186 275.34 98.9736 275.652 99.1998 275.811C99.4261 275.969 99.7378 275.914 99.8962 275.688L99.077 275.114ZM111.935 263.648C112.162 263.49 112.217 263.178 112.058 262.952C111.9 262.726 111.588 262.671 111.362 262.829L111.935 263.648ZM99.8962 275.688C102.265 272.303 103.592 270.482 105.161 268.913C106.73 267.345 108.551 266.018 111.935 263.648L111.362 262.829C107.99 265.19 106.095 266.565 104.454 268.206C102.813 269.847 101.438 271.742 99.077 275.114L99.8962 275.688Z"
          fill="white" fill-opacity="0.7"/>
    <path d="M63.861 302.526C63.9151 302.797 64.1785 302.972 64.4493 302.918C64.7201 302.864 64.8957 302.601 64.8415 302.33L63.861 302.526ZM64.8416 288.337C64.8958 288.066 64.7202 287.803 64.4494 287.748C64.1786 287.694 63.9152 287.87 63.861 288.141L64.8416 288.337ZM64.8415 302.33C64.1639 298.942 63.8377 297.133 63.8377 295.333C63.8378 293.534 64.1639 291.725 64.8416 288.337L63.861 288.141C63.1873 291.509 62.8378 293.417 62.8377 295.333C62.8377 297.25 63.1873 299.158 63.861 302.526L64.8415 302.33Z"
          fill="white" fill-opacity="0.7"/>
    <path d="M42.0541 309.833C45.18 317.744 47.3947 321.623 52.8649 326.725H76.5135C77.4073 321.722 73.3178 323.365 72.4595 315.239L67.0541 321.996L62.3243 300.374L57.5946 320.644L42.0541 309.833Z"
          fill="#99E078"/>
    <path d="M74.4865 307.833L73.1351 324.725H80.5676L74.4865 307.833Z" fill="#92D175"/>
    <path d="M88.0001 313.239C85.6014 317.496 84.7635 320.007 83.946 324.725H91.3785C90.5925 320.176 89.8882 317.657 88.0001 313.239Z"
          fill="#92D175"/>
    <path d="M90.7026 324.725H98.1351L96.108 316.617L94.7567 310.536L92.054 319.32L90.7026 324.725Z" fill="#92D175"/>
    <path d="M81.2433 303.779L77.1892 324.725H84.6216L81.2433 303.779Z" fill="#92D175"/>
    <path d="M375 305C261 361.295 143 292.18 0 337.885V666H375V305Z" fill="#99E078"/>
    <path d="M270 318.015C270.708 323.543 271.263 326.356 272.981 330.027H297.827C298.619 324.163 298.504 320.876 297.827 315.012L292.858 322.019C290.931 314.8 289.885 310.77 286.895 303L285.901 323.02C285.163 317.485 283.589 314.712 279.938 310.007C277.86 315.56 277.129 319.006 276.957 326.023C274.68 321.524 273.104 319.936 270 318.015Z"
          fill="#99E078"/>
    <path d="M102.865 320.198C103.254 323.239 102.816 323.382 103.761 325.401H117.426C117.862 322.176 117.799 320.368 117.426 317.143L114.693 320.997C113.634 317.026 113.058 314.81 111.414 310.536L110.867 321.547C110.461 318.503 109.596 316.978 107.588 314.39C106.445 317.444 106.042 319.34 105.948 323.199C104.696 320.724 104.572 321.255 102.865 320.198Z"
          fill="#99E078"/>
    <path d="M283 319.091L285.585 329.973H312.73V307L306.267 326.346V309.418L302.389 327.555L299.804 316.673L297.219 323.927L293.341 309.418L290.5 327.555L283 319.091Z"
          fill="#92D175"/>
    <path d="M110.973 325.401L111.89 316.816C113.84 320.797 114.262 322.547 114.641 325.401C115.632 319.293 117.098 316.278 120.143 311.093C121.234 317.343 121.723 320.633 121.977 325.401H127.02C126.954 321.464 127.052 319.163 127.479 314.908C129.957 319.312 130.91 321.588 132.064 325.401C132.701 319.126 134.496 315.57 136.649 309.185L135.732 318.724L134.815 325.401H132.064H127.02H121.977H114.641H110.973Z"
          fill="#92D175"/>
    <path d="M121.784 325.401H127.189L125.387 321.647L123.586 318.644L122.685 321.647L121.784 325.401Z" fill="#92D175"/>
    <path d="M135.297 325.401C135.418 324.16 136.114 322.085 138.135 316.714C138.895 322.476 139.084 324.268 139.081 325.401C139.363 320.832 139.997 318.299 141.919 313.818C144.087 319.611 144.768 322.222 144.757 325.401C145.876 322.123 144.87 320.472 146.649 317.679C147.974 320.827 148.573 322.503 149.486 325.401C149.865 319.708 150.575 317.508 152.324 311.887C152.252 319.223 152.576 321.613 154.216 325.401H149.486H144.757H139.081H135.297Z"
          fill="#92D175"/>
    <path d="M113.398 262.147C113.169 262.3 113.107 262.611 113.26 262.84C113.413 263.07 113.723 263.132 113.953 262.979L113.398 262.147ZM117.895 261.008C118.155 260.917 118.293 260.632 118.202 260.371C118.111 260.111 117.826 259.973 117.565 260.064L117.895 261.008ZM113.953 262.979C114.976 262.297 115.441 261.993 115.906 261.763C116.372 261.533 116.841 261.376 117.895 261.008L117.565 260.064C116.543 260.421 115.999 260.602 115.463 260.866C114.927 261.131 114.403 261.478 113.398 262.147L113.953 262.979Z"
          fill="white" fill-opacity="0.7"/>
    <path d="M259.622 290.266L263.676 298.374H254.216" stroke="white" stroke-opacity="0.7" stroke-linecap="round"
          stroke-linejoin="round"/>
    <path d="M349.025 38.2653C320.479 34.7512 308.877 67.3065 308.877 67.3065C308.877 67.3065 268 65.1284 268 89.0874C268 113.046 316.177 108.69 335.886 108.69C355.595 108.69 391.273 113.046 395.742 89.0874C397.382 80.2983 391.362 70.2106 373.114 70.2106C368.697 55.7771 370.133 45.8684 349.025 38.2653Z"
          fill="#F7F7F5"/>
    <path d="M90.1893 121.482C82.5029 109.689 81.2673 106.827 65.6305 97.2351C-1.21768 69.9353 20.1553 157.845 54.2958 167.052C88.4363 176.259 102.763 162.19 110.834 148.412C115.124 141.089 107.427 121.482 90.1893 121.482Z"
          fill="#F7F7F5"/>
    <path d="M240.367 79.7134C230.57 89.5171 232 97 235.263 107.183C238.527 117.366 265.161 127.701 283.38 116.58C299.028 121.428 305.723 110.596 308.168 102.846C310.613 95.0951 316.344 92.8909 306.71 76.8219C306.275 62.6053 296.597 59.1146 274.68 64.4014C255.806 58.0905 243.473 62.8267 240.367 79.7134Z"
          fill="white"/>
    <path d="M-3.49993 104C-13.2966 113.804 -16.7633 129.817 -13.5 140C-10.2366 150.183 19.2803 167.62 37.5001 156.5C66.9428 158.65 91.5 149.5 80.5 119.5C79.1849 98.6321 68 81.5 31.5001 95.5C12.6261 89.1891 -0.393733 87.1132 -3.49993 104Z"
          fill="white"/>
  </g>
  <defs>
    <clipPath id="clip0">
      <rect width="375" height="667" fill="white"/>
    </clipPath>
  </defs>
</svg>
